<?xml version="1.0" encoding="UTF-8" standalone="no"?>
<!-- Created with Inkscape (http://www.inkscape.org/) -->

<svg
   width="31.852133mm"
   height="25.095118mm"
   viewBox="0 0 31.852133 25.095118"
   version="1.1"
   id="svg1"
   xmlns:inkscape="http://www.inkscape.org/namespaces/inkscape"
   xmlns:sodipodi="http://sodipodi.sourceforge.net/DTD/sodipodi-0.dtd"
   xmlns="http://www.w3.org/2000/svg"
   xmlns:svg="http://www.w3.org/2000/svg">
  <sodipodi:namedview
     id="namedview1"
     pagecolor="#ffffff"
     bordercolor="#000000"
     borderopacity="0.25"
     inkscape:showpageshadow="2"
     inkscape:pageopacity="0.0"
     inkscape:pagecheckerboard="0"
     inkscape:deskcolor="#d1d1d1"
     inkscape:document-units="mm">
    <inkscape:page
       x="0"
       y="0"
       width="31.852133"
       height="25.095118"
       id="page2"
       margin="0"
       bleed="0" />
  </sodipodi:namedview>
  <defs
     id="defs1" />
  <g
     inkscape:label="Layer 1"
     inkscape:groupmode="layer"
     id="layer1"
     transform="translate(-86.872965,-110.7012)">
    <g
       id="g4"
       transform="matrix(2.0496978,0,0,2.0496978,-38.262479,-86.991474)"
       inkscape:export-filename="g4.svg"
       inkscape:export-xdpi="96"
       inkscape:export-ydpi="96">
      <path
         style="font-size:12.7px;fill:#1a1a1a;stroke-width:0.264583"
         d="m 48.385676,125.67708 h -1.519287 l -4.378028,-8.25996 v 8.25996 h -1.147216 v -9.23355 h 1.903759 l 3.993555,7.54063 v -7.54063 h 1.147217 z m 8.266162,-3.46026 q 0,1.69292 -0.868164,2.67271 -0.868164,0.97978 -2.325439,0.97978 -1.469678,0 -2.337842,-0.97978 -0.861963,-0.97979 -0.861963,-2.67271 0,-1.69292 0.861963,-2.6727 0.868164,-0.98599 2.337842,-0.98599 1.457275,0 2.325439,0.98599 0.868164,0.97978 0.868164,2.6727 z m -1.203027,0 q 0,-1.34565 -0.5271,-1.99677 -0.5271,-0.65733 -1.463476,-0.65733 -0.94878,0 -1.475879,0.65733 -0.520899,0.65112 -0.520899,1.99677 0,1.30225 0.5271,1.97818 0.527099,0.66972 1.469678,0.66972 0.930175,0 1.457275,-0.66352 0.533301,-0.66973 0.533301,-1.98438 z m 8.904882,-3.46645 -2.802929,6.92671 h -1.172022 l -2.784326,-6.92671 h 1.265039 l 2.145606,5.51284 2.127001,-5.51284 z m 7.211964,3.58428 h -5.103565 q 0,0.63872 0.192237,1.11621 0.192236,0.47129 0.527099,0.77514 0.322461,0.29766 0.762744,0.44649 0.446485,0.14883 0.979785,0.14883 0.706934,0 1.420069,-0.27906 0.719336,-0.28525 1.023193,-0.5581 h 0.06201 v 1.27124 q -0.589112,0.24805 -1.203028,0.41548 -0.613916,0.16743 -1.289843,0.16743 -1.723926,0 -2.691309,-0.93018 -0.967383,-0.93637 -0.967383,-2.6541 0,-1.69912 0.923975,-2.69751 0.930176,-0.99839 2.443262,-0.99839 1.401464,0 2.158007,0.81856 0.762745,0.81855 0.762745,2.32544 z m -1.134815,-0.89297 q -0.0062,-0.91778 -0.465088,-1.42007 -0.452685,-0.5023 -1.382861,-0.5023 -0.936377,0 -1.494482,0.55191 -0.551905,0.5519 -0.626319,1.37046 z m 4.080369,4.2354 h -1.16582 v -9.64903 h 1.16582 z m 3.485062,0 h -1.16582 v -9.64903 h 1.16582 z m 8.04912,0 h -1.16582 v -0.76895 q -0.589111,0.46509 -1.128613,0.71314 -0.539502,0.24804 -1.190625,0.24804 -1.091407,0 -1.699121,-0.66352 -0.607715,-0.66973 -0.607715,-1.95957 v -4.49585 h 1.16582 v 3.94394 q 0,0.5271 0.04961,0.90538 0.04961,0.37207 0.21084,0.63872 0.167432,0.27285 0.434082,0.39687 0.266651,0.12402 0.775147,0.12402 0.452685,0 0.985986,-0.23564 0.539502,-0.23564 1.00459,-0.60151 v -5.17178 h 1.16582 z m 12.402342,0 h -1.165821 v -3.94395 q 0,-0.44648 -0.04341,-0.86196 -0.03721,-0.41548 -0.167431,-0.66353 -0.142627,-0.26665 -0.409278,-0.40307 -0.26665,-0.13643 -0.768945,-0.13643 -0.489893,0 -0.979785,0.24805 -0.489893,0.24185 -0.979785,0.62012 0.0186,0.14262 0.031,0.33486 0.0124,0.18604 0.0124,0.37207 v 4.43384 h -1.16582 v -3.94395 q 0,-0.45888 -0.04341,-0.86816 -0.03721,-0.41548 -0.167431,-0.66353 -0.142627,-0.26665 -0.409278,-0.39687 -0.26665,-0.13643 -0.768945,-0.13643 -0.47749,0 -0.961182,0.23565 -0.47749,0.23564 -0.95498,0.60151 v 5.17178 h -1.16582 v -6.92671 h 1.16582 v 0.76894 q 0.545703,-0.45268 1.085205,-0.70693 0.545703,-0.25425 1.159619,-0.25425 0.706934,0 1.196826,0.29766 0.496094,0.29766 0.73794,0.82476 0.706933,-0.59532 1.289843,-0.85577 0.582911,-0.26665 1.246436,-0.26665 1.141016,0 1.680518,0.69453 0.545703,0.68833 0.545703,1.92857 z"
         id="text1"
         aria-label="Novellum" />
      <g
         id="g3"
         transform="translate(-1.0084693,-7.4626728)">
        <g
           id="g6">
          <circle
             style="fill:#b3b3b3;fill-opacity:0;stroke:#b3b3b3;stroke-width:0.994;stroke-dasharray:none;stroke-opacity:1"
             id="path3"
             cx="64.118683"
             cy="114.09613"
             r="1.5625318" />
          <circle
             style="fill:#b3b3b3;fill-opacity:0;stroke:#b3b3b3;stroke-width:0.994;stroke-dasharray:none;stroke-opacity:1"
             id="path3-0"
             cx="74.772102"
             cy="105.97187"
             r="1.5625318" />
          <circle
             style="fill:#b3b3b3;fill-opacity:0;stroke:#b3b3b3;stroke-width:0.994;stroke-dasharray:none;stroke-opacity:1"
             id="path3-9"
             cx="75.539536"
             cy="113.23085"
             r="1.5625318" />
          <circle
             style="fill:#b3b3b3;fill-opacity:0;stroke:#b3b3b3;stroke-width:0.994;stroke-dasharray:none;stroke-opacity:1"
             id="path3-98"
             cx="71.89418"
             cy="110.034"
             r="1.5625318" />
          <circle
             style="fill:#b3b3b3;fill-opacity:0;stroke:#b3b3b3;stroke-width:0.994;stroke-dasharray:none;stroke-opacity:1"
             id="path3-6"
             cx="69.016266"
             cy="114.09613"
             r="1.5625318" />
        </g>
      </g>
    </g>
  </g>
</svg>
